<svg width="36" height="60" viewBox="0 0 36 60" fill="none" xmlns="http://www.w3.org/2000/svg">
<path d="M30.594 58.999H5.40402C3.52302 58.999 1.99902 57.474 1.99902 55.594V4.40402C1.99902 2.52302 3.52402 0.999023 5.40402 0.999023H30.593C32.474 0.999023 33.998 2.52402 33.998 4.40402V55.593C33.999 57.474 32.474 58.999 30.594 58.999Z" fill="#E7ECED"/>
<path d="M17.999 56.999C19.6559 56.999 20.999 55.6559 20.999 53.999C20.999 52.3422 19.6559 50.999 17.999 50.999C16.3422 50.999 14.999 52.3422 14.999 53.999C14.999 55.6559 16.3422 56.999 17.999 56.999Z" fill="white"/>
<path d="M17.999 4.99902H13.999C13.446 4.99902 12.999 4.55202 12.999 3.99902C12.999 3.44602 13.446 2.99902 13.999 2.99902H17.999C18.552 2.99902 18.999 3.44602 18.999 3.99902C18.999 4.55202 18.552 4.99902 17.999 4.99902Z" fill="#424A60"/>
<path d="M21.999 4.99902H20.999C20.446 4.99902 19.999 4.55202 19.999 3.99902C19.999 3.44602 20.446 2.99902 20.999 2.99902H21.999C22.552 2.99902 22.999 3.44602 22.999 3.99902C22.999 4.55202 22.552 4.99902 21.999 4.99902Z" fill="#424A60"/>
<path d="M33.999 6.99902H1.99902V48.999H33.999V6.99902Z" fill="#424A60"/>
</svg>
